<?xml version="1.0" encoding="UTF-8"?>
<svg version="1.1" xmlns="http://www.w3.org/2000/svg" width="500" height="500">
<path d="M0 0 C165 0 330 0 500 0 C500 165 500 330 500 500 C335 500 170 500 0 500 C0 335 0 170 0 0 Z " fill="#D5D5D7" transform="translate(0,0)"/>
<path d="M0 0 C9.8649881 8.13757457 15.89838371 18.0812253 17.41772461 30.86474609 C17.79335089 35.07406112 17.80938303 39.27649963 17.8125 43.5 C17.82474609 44.39267578 17.83699219 45.28535156 17.84960938 46.20507812 C17.85154297 47.06166016 17.85347656 47.91824219 17.85546875 48.80078125 C17.85957764 49.57204346 17.86368652 50.34330566 17.86791992 51.13793945 C17.625 53.1875 17.625 53.1875 15.625 56.1875 C12.76757812 56.57568359 12.76757812 56.57568359 9.15625 56.5859375 C7.86332031 56.58980469 6.57039063 56.59367187 5.23828125 56.59765625 C4.56361816 56.59137207 3.88895508 56.58508789 3.19384766 56.57861328 C1.13246417 56.56255813 -0.9269589 56.57845597 -2.98828125 56.59765625 C-4.92767578 56.59185547 -4.92767578 56.59185547 -6.90625 56.5859375 C-8.09798828 56.58255371 -9.28972656 56.57916992 -10.51757812 56.57568359 C-11.93200195 56.38353271 -11.93200195 56.38353271 -13.375 56.1875 C-15.49497583 53.00753626 -15.62946863 52.13089274 -15.68359375 48.4765625 C-15.70873047 47.56132812 -15.73386719 46.64609375 -15.75976562 45.703125 C-15.79477816 43.78391912 -15.82605929 41.86464135 -15.85351562 39.9453125 C-16.02438681 33.07868531 -16.02438681 33.07868531 -19.375 27.1875 C-22.83578037 24.31999626 -25.88006612 23.64903105 -30.3828125 23.8359375 C-34.62021619 24.58371462 -37.37342527 26.95341502 -40.01771545 30.21156311 C-41.98069637 34.5155297 -41.8015626 38.43603552 -41.77905273 43.11499023 C-41.78934761 44.60855545 -41.78934761 44.60855545 -41.79985046 46.1322937 C-41.81813646 49.42037253 -41.81427827 52.70797503 -41.80859375 55.99609375 C-41.81315468 58.28386083 -41.81845999 60.57162654 -41.82447815 62.85939026 C-41.83341282 67.6534685 -41.83098198 72.44738018 -41.82104492 77.24145508 C-41.80955511 83.38291203 -41.82976565 89.52379403 -41.85896206 95.66517544 C-41.8773142 100.38954822 -41.87703352 105.11378297 -41.87132454 109.83818245 C-41.8711712 112.10238514 -41.87722559 114.36659712 -41.88961601 116.63076591 C-41.90450499 119.79774853 -41.89386349 122.9636658 -41.87670898 126.13061523 C-41.89121094 127.53116402 -41.89121094 127.53116402 -41.90600586 128.96000671 C-41.82832233 135.81413593 -40.27609301 138.96406332 -35.6875 144.0625 C-30.89099474 146.39593499 -25.93004352 145.70584784 -21 144.0625 C-17.60669952 141.63871395 -16.85739191 140.12089216 -15.375 136.1875 C-14.90015082 132.10821424 -14.81823502 128.04134933 -14.75 123.9375 C-14.69913424 121.76553213 -14.644634 119.59364535 -14.5859375 117.421875 C-14.56837402 116.46506836 -14.55081055 115.50826172 -14.53271484 114.52246094 C-14.375 112.1875 -14.375 112.1875 -13.375 110.1875 C-9.13917673 110.13811372 -4.90350535 110.10178737 -0.66748047 110.07763672 C0.77395547 110.06757037 2.21537095 110.0539162 3.65673828 110.03662109 C5.72693934 110.01239988 7.79687076 110.00102359 9.8671875 109.9921875 C11.73673096 109.97647705 11.73673096 109.97647705 13.64404297 109.96044922 C16.625 110.1875 16.625 110.1875 18.625 112.1875 C19.09025237 116.29247333 18.94887875 120.43429036 18.9375 124.5625 C18.95361328 125.69300781 18.96972656 126.82351563 18.98632812 127.98828125 C18.99440039 142.08246191 15.67888361 154.89548511 6 165.5 C-4.79937377 175.6140289 -19.23365342 178.66427696 -33.55078125 178.52734375 C-46.51658541 177.37512213 -59.2320258 171.39798119 -67.75 161.5 C-73.28725489 154.07530299 -77.48066945 144.93335604 -77.51544189 135.55978394 C-77.52115204 134.63476578 -77.52686218 133.70974762 -77.53274536 132.75669861 C-77.53386322 131.74885818 -77.53498108 130.74101776 -77.53613281 129.70263672 C-77.54109772 128.63546921 -77.54606262 127.5683017 -77.55117798 126.46879578 C-77.56579328 122.9349198 -77.57260152 119.40108875 -77.578125 115.8671875 C-77.58387812 113.40821329 -77.58963584 110.94923908 -77.59539795 108.49026489 C-77.60590694 103.33042187 -77.6117499 98.17059441 -77.61523438 93.01074219 C-77.62071084 86.41352865 -77.64472141 79.81652236 -77.67320633 73.2193737 C-77.69187479 68.13715016 -77.69704062 63.05497603 -77.69857025 57.9727211 C-77.70158912 55.54156489 -77.70959165 53.1104094 -77.72275543 50.67928696 C-77.73989925 47.26894359 -77.73791482 43.8591 -77.73144531 40.44873047 C-77.7406601 39.45303543 -77.74987488 38.45734039 -77.7593689 37.43147278 C-77.6865779 25.11998719 -73.59740045 15.1026053 -65.33984375 5.92578125 C-48.12471733 -10.47701616 -19.71298162 -13.67916025 0 0 Z " fill="#020202" transform="translate(336.375,164.8125)"/>
<path d="M0 0 C1.1540609 0.00067978 1.1540609 0.00067978 2.33143616 0.00137329 C3.13791595 -0.00198532 3.94439575 -0.00534393 4.77531433 -0.00880432 C7.45492573 -0.01834319 10.13447483 -0.02025889 12.81410217 -0.02133179 C14.66876248 -0.02454232 16.52342252 -0.02790623 18.37808228 -0.03141785 C22.27123095 -0.03741646 26.1643574 -0.039257 30.05751038 -0.03866577 C35.0558952 -0.0385641 40.05413812 -0.05221778 45.05248928 -0.06943798 C48.88452819 -0.08053486 52.71653255 -0.08258569 56.54858589 -0.08205605 C58.39184623 -0.08323961 60.23510736 -0.08768228 62.07835197 -0.09538841 C64.65239894 -0.10514189 67.2261346 -0.1023288 69.80018616 -0.09628296 C70.56753586 -0.10190247 71.33488556 -0.10752197 72.12548828 -0.11331177 C77.40219288 -0.08167858 77.40219288 -0.08167858 79.63050842 2.14663696 C79.88929749 4.82046509 79.88929749 4.82046509 79.89613342 8.17788696 C79.90000061 9.98192993 79.90000061 9.98192993 79.90394592 11.82241821 C79.89621155 13.0844104 79.88847717 14.34640259 79.88050842 15.64663696 C79.89210999 17.53962524 79.89210999 17.53962524 79.90394592 19.47085571 C79.9013678 20.67355103 79.89878967 21.87624634 79.89613342 23.11538696 C79.89387756 24.22333618 79.8916217 25.3312854 79.88929749 26.47280884 C79.63050842 29.14663696 79.63050842 29.14663696 77.63050842 31.14663696 C75.49180603 31.387146 75.49180603 31.387146 72.81361389 31.37368774 C71.81272736 31.37353668 70.81184082 31.37338562 69.78062439 31.37322998 C68.1555748 31.35774612 68.1555748 31.35774612 66.49769592 31.34194946 C65.39072357 31.33911957 64.28375122 31.33628967 63.14323425 31.33337402 C59.59721705 31.32215215 56.05144967 31.29704387 52.50550842 31.27163696 C50.10577248 31.26160976 47.70603259 31.25248346 45.30628967 31.24429321 C39.41418821 31.22390532 33.52262895 31.18475996 27.63050842 31.14663696 C27.63050842 45.00663696 27.63050842 58.86663696 27.63050842 73.14663696 C40.70450363 73.10705463 40.70450363 73.10705463 53.77845764 73.05654907 C55.41403641 73.05362924 57.0496159 73.05108084 58.68519592 73.04898071 C59.96535583 73.04130676 59.96535583 73.04130676 61.27137756 73.03347778 C67.40236482 73.03256516 67.40236482 73.03256516 69.63050842 74.14663696 C69.65516588 78.25836256 69.67334801 82.37005974 69.68544006 86.48184204 C69.69047922 87.88158925 69.69731059 89.28133116 69.70594788 90.68106079 C69.71803162 92.68909473 69.72320649 94.69716654 69.72816467 96.70523071 C69.73340149 97.9149353 69.73863831 99.12463989 69.74403381 100.3710022 C69.63050842 103.14663696 69.63050842 103.14663696 68.63050842 104.14663696 C65.60094599 104.23534337 62.59364133 104.26190278 59.56410217 104.24429321 C58.75912292 104.24328613 57.95414368 104.24227905 57.12477112 104.24124146 C54.10583581 104.23599311 51.08692075 104.22203196 48.06800842 104.20913696 C37.95144592 104.17819946 37.95144592 104.17819946 27.63050842 104.14663696 C27.63050842 118.99663696 27.63050842 133.84663696 27.63050842 149.14663696 C31.30046936 149.1350354 34.9704303 149.12343384 38.75160217 149.11148071 C42.28944309 149.10369144 45.82728307 149.09761394 49.36512756 149.09170532 C51.83192876 149.0866634 54.29872695 149.07983006 56.76551819 149.07119751 C60.30255371 149.05912572 63.83954988 149.0534074 67.37660217 149.04898071 C68.48700363 149.04381943 69.59740509 149.03865814 70.74145508 149.03334045 C72.27292931 149.03322716 72.27292931 149.03322716 73.83534241 149.03311157 C74.73913132 149.03089096 75.64292023 149.02867035 76.57409668 149.02638245 C78.63050842 149.14663696 78.63050842 149.14663696 79.63050842 150.14663696 C79.88466392 154.78679021 79.8157364 159.43785002 79.81800842 164.08413696 C79.83025452 165.39833618 79.84250061 166.7125354 79.8551178 168.06655884 C79.85705139 169.31888306 79.85898499 170.57120728 79.86097717 171.86148071 C79.86508606 173.01768921 79.86919495 174.17389771 79.87342834 175.36514282 C79.63050842 178.14663696 79.63050842 178.14663696 77.63050842 180.14663696 C75.02127438 180.34503297 72.51818315 180.41939672 69.90785217 180.40542603 C69.11097992 180.40893066 68.31410767 180.4124353 67.49308777 180.41604614 C64.8513068 180.42486975 62.20979226 180.41901215 59.56800842 180.41226196 C57.73719735 180.41360843 55.90638663 180.41554881 54.07557678 180.4180603 C50.23545432 180.42101242 46.39542479 180.41671113 42.55531311 180.40737915 C37.62532148 180.39598456 32.6955476 180.40254357 27.76556396 180.41452408 C23.98412933 180.42174033 20.20274659 180.41945584 16.42131042 180.41426849 C14.60317459 180.41293134 12.78503408 180.41458198 10.96690369 180.4192276 C8.42886316 180.424289 5.89117859 180.41658819 3.35316467 180.40542603 C2.2185228 180.41149872 2.2185228 180.41149872 1.06095886 180.41769409 C-4.14096297 180.37516557 -4.14096297 180.37516557 -6.36949158 178.14663696 C-6.61838055 175.13906002 -6.61838055 175.13906002 -6.61672974 171.19325256 C-6.61914415 170.46946051 -6.62155857 169.74566846 -6.62404615 168.99994332 C-6.62970474 166.56234132 -6.62100392 164.12499888 -6.6124115 161.68740845 C-6.61348384 159.94491505 -6.6154218 158.20242199 -6.61816406 156.45993042 C-6.6230229 151.71836237 -6.61534408 146.97688802 -6.60521102 142.2353313 C-6.59644867 137.28300245 -6.5981876 132.33067669 -6.59857178 127.37834167 C-6.59763439 119.0615888 -6.58893992 110.74487234 -6.57530212 102.4281311 C-6.55957066 92.79873279 -6.55430415 83.16937438 -6.55503768 73.53996414 C-6.55564704 64.29325456 -6.55055035 55.04655804 -6.54224586 45.79985237 C-6.53870605 41.85687216 -6.53688162 37.91389657 -6.53635216 33.97091484 C-6.53535104 29.33266605 -6.52927342 24.69445104 -6.51918602 20.05621338 C-6.51625373 18.34893564 -6.51503711 16.64165401 -6.51561356 14.93437386 C-6.51610074 12.61389201 -6.51048338 10.29350624 -6.50320435 7.97303772 C-6.5015285 6.67129828 -6.49985266 5.36955885 -6.49812603 4.02837276 C-6.27913075 -0.87767322 -4.41823035 0.02704088 0 0 Z " fill="#000000" transform="translate(156.36949157714844,159.85336303710938)"/>
<path d="M0 0 C82.5 0 165 0 250 0 C250 0.99 250 1.98 250 3 C167.5 3 85 3 0 3 C0 2.01 0 1.02 0 0 Z " fill="#454546" transform="translate(125,424)"/>
<path d="M0 0 C0.33 0.99 0.66 1.98 1 3 C2.90178785 3.60061233 2.90178785 3.60061233 5 4 C5.99 4.66 6.98 5.32 8 6 C8 6.99 8 7.98 8 9 C7.40461426 9.0501123 6.80922852 9.10022461 6.19580078 9.15185547 C3.5046386 9.38360757 0.81490736 9.62912852 -1.875 9.875 C-2.81214844 9.95363281 -3.74929687 10.03226562 -4.71484375 10.11328125 C-5.61074219 10.19707031 -6.50664062 10.28085937 -7.4296875 10.3671875 C-8.25710449 10.44050293 -9.08452148 10.51381836 -9.93701172 10.58935547 C-12.21443885 10.84413382 -12.21443885 10.84413382 -14 13 C-16.1640625 13.6328125 -16.1640625 13.6328125 -18.625 14.125 C-19.44226563 14.29257812 -20.25953125 14.46015625 -21.1015625 14.6328125 C-22.04128906 14.81457031 -22.04128906 14.81457031 -23 15 C-22.195625 15.268125 -21.39125 15.53625 -20.5625 15.8125 C-19.716875 16.204375 -18.87125 16.59625 -18 17 C-17.67 17.99 -17.34 18.98 -17 20 C-22.4611399 19.11917098 -22.4611399 19.11917098 -25 18 C-26.5 14.875 -26.5 14.875 -27 12 C-25.70990357 11.49596232 -24.41786211 10.99690074 -23.125 10.5 C-22.40570313 10.2215625 -21.68640625 9.943125 -20.9453125 9.65625 C-19 9 -19 9 -17 9 C-17 8.34 -17 7.68 -17 7 C-16.01 7 -15.02 7 -14 7 C-14 7.66 -14 8.32 -14 9 C-11.7763932 7.0745356 -11.7763932 7.0745356 -11 4 C-8.36 3.67 -5.72 3.34 -3 3 C-2.67 3.66 -2.34 4.32 -2 5 C-2.99 5 -3.98 5 -5 5 C-5 5.99 -5 6.98 -5 8 C-3.35 7.67 -1.7 7.34 0 7 C-0.33 6.01 -0.66 5.02 -1 4 C-0.5625 1.8125 -0.5625 1.8125 0 0 Z " fill="#B5B4B9" transform="translate(251,283)"/>
<path d="M0 0 C0.66 0.33 1.32 0.66 2 1 C1.34 2.65 0.68 4.3 0 6 C3.26954202 5.43628586 4.82575883 4.50037734 7 2 C7.1546875 2.9590625 7.1546875 2.9590625 7.3125 3.9375 C7.6528125 4.9584375 7.6528125 4.9584375 8 6 C8.99 6.33 9.98 6.66 11 7 C11 7.33 11 7.66 11 8 C23.54 8.33 36.08 8.66 49 9 C49 9.33 49 9.66 49 10 C22.27 10 -4.46 10 -32 10 C-32 9.67 -32 9.34 -32 9 C-31.39003174 8.98541748 -30.78006348 8.97083496 -30.15161133 8.95581055 C-27.37128936 8.88105225 -24.59213176 8.78448518 -21.8125 8.6875 C-20.85279297 8.66494141 -19.89308594 8.64238281 -18.90429688 8.61914062 C-11.95091049 8.39689672 -11.95091049 8.39689672 -6 5 C-5.67 4.34 -5.34 3.68 -5 3 C-2.5625 1.3125 -2.5625 1.3125 0 0 Z " fill="#88888B" transform="translate(184,150)"/>
<path d="M0 0 C1.48306641 0.02126953 1.48306641 0.02126953 2.99609375 0.04296875 C3.98738281 0.04941406 4.97867188 0.05585938 6 0.0625 C8.43359375 0.23046875 8.43359375 0.23046875 9.43359375 1.23046875 C9.50672942 3.76096277 9.52606902 6.26351712 9.49609375 8.79296875 C9.49158203 9.50388672 9.48707031 10.21480469 9.48242188 10.94726562 C9.47060239 12.70836888 9.45266638 14.46942911 9.43359375 16.23046875 C8.44359375 16.23046875 7.45359375 16.23046875 6.43359375 16.23046875 C6.43359375 11.94046875 6.43359375 7.65046875 6.43359375 3.23046875 C5.77359375 3.23046875 5.11359375 3.23046875 4.43359375 3.23046875 C4.43359375 7.52046875 4.43359375 11.81046875 4.43359375 16.23046875 C3.44359375 16.23046875 2.45359375 16.23046875 1.43359375 16.23046875 C1.43359375 11.61046875 1.43359375 6.99046875 1.43359375 2.23046875 C0.44359375 2.72546875 0.44359375 2.72546875 -0.56640625 3.23046875 C-1.03594886 6.27628144 -1.03594886 6.27628144 -1.19140625 9.79296875 C-1.26617187 10.99050781 -1.3409375 12.18804687 -1.41796875 13.421875 C-1.46695313 14.34871094 -1.5159375 15.27554687 -1.56640625 16.23046875 C-2.55640625 16.23046875 -3.54640625 16.23046875 -4.56640625 16.23046875 C-4.62025146 13.93905589 -4.65912712 11.64728687 -4.69140625 9.35546875 C-4.71460938 8.07929688 -4.7378125 6.803125 -4.76171875 5.48828125 C-4.52392006 1.52179917 -4.0535766 0.36401982 0 0 Z " fill="#111111" transform="translate(245.56640625,389.76953125)"/>
<path d="M0 0 C0.94875 0.04125 1.8975 0.0825 2.875 0.125 C4.23771133 2.85042267 4.04423601 5.08587274 4.0625 8.125 C4.07667969 9.1975 4.09085938 10.27 4.10546875 11.375 C3.875 14.125 3.875 14.125 1.875 16.125 C-0.625 16.375 -0.625 16.375 -3.125 16.125 C-5.125 14.125 -5.125 14.125 -5.390625 11.375 C-5.38546875 10.3025 -5.3803125 9.23 -5.375 8.125 C-5.38015625 7.0525 -5.3853125 5.98 -5.390625 4.875 C-4.99742197 0.80419219 -4.05160266 0.16206411 0 0 Z " fill="#0F0F0F" transform="translate(223.125,389.875)"/>
<path d="M0 0 C0 4.62 0 9.24 0 14 C-4.76562241 14 -8.45368876 13.88708512 -13 13 C-13.33 13.66 -13.66 14.32 -14 15 C-14.66 15 -15.32 15 -16 15 C-15.67 13.02 -15.34 11.04 -15 9 C-13.906875 8.773125 -12.81375 8.54625 -11.6875 8.3125 C-7.45929996 6.80754744 -6.93496324 5.86992648 -5 2 C-2 0 -2 0 0 0 Z " fill="#BBBABF" transform="translate(149,172)"/>
<path d="M0 0 C2.31 0 4.62 0 7 0 C9 2 9 2 9.1875 4.5 C9 7 9 7 8 9 C7.95977609 11.3329866 7.95679753 13.66706666 8 16 C7.01 16 6.02 16 5 16 C5 14.02 5 12.04 5 10 C4.34 10 3.68 10 3 10 C3 11.98 3 13.96 3 16 C2.01 16 1.02 16 0 16 C0 10.72 0 5.44 0 0 Z " fill="#1E1D1E" transform="translate(356,390)"/>
<path d="M0 0 C0.886875 0.103125 1.77375 0.20625 2.6875 0.3125 C2.6875 5.17146878 1.88841185 6.70401863 -1.3125 10.3125 C-4.03256435 11.3038575 -6.68636344 11.50964703 -9.5625 11.6875 C-10.30757812 11.75582031 -11.05265625 11.82414063 -11.8203125 11.89453125 C-13.6489862 12.05864299 -15.48063838 12.18895584 -17.3125 12.3125 C-17.046875 10.40234375 -17.046875 10.40234375 -16.3125 8.3125 C-14.640625 7.44140625 -14.640625 7.44140625 -12.5625 6.875 C-9.2336726 5.80882752 -8.25774034 5.25643654 -5.6875 2.625 C-3.3125 0.3125 -3.3125 0.3125 0 0 Z " fill="#C4C5C9" transform="translate(148.3125,156.6875)"/>
<path d="M0 0 C0.33 0 0.66 0 1 0 C1 5.61 1 11.22 1 17 C4.63 17 8.26 17 12 17 C12 16.34 12 15.68 12 15 C13.32 15.33 14.64 15.66 16 16 C15.1875 18.9375 15.1875 18.9375 14 22 C13.01 22.33 12.02 22.66 11 23 C11 24.98 11 26.96 11 29 C10.01 29 9.02 29 8 29 C7.67 26.36 7.34 23.72 7 21 C4.08482708 22.07401108 2.22189824 22.77810176 0 25 C0 16.75 0 8.5 0 0 Z " fill="#A9A8AC" transform="translate(226,236)"/>
<path d="M0 0 C3 1 3 1 5 3 C6.2065625 2.7215625 6.2065625 2.7215625 7.4375 2.4375 C8.7059375 2.2209375 8.7059375 2.2209375 10 2 C11.625 3.375 11.625 3.375 13 5 C13.99 5.33 14.98 5.66 16 6 C16.33 6.99 16.66 7.98 17 9 C15.53619796 11.30026035 13.92817889 13.07182111 12 15 C8.875 14.625 8.875 14.625 6 14 C6 13.01 6 12.02 6 11 C6.99 11 7.98 11 9 11 C9 10.34 9 9.68 9 9 C8.2575 8.938125 7.515 8.87625 6.75 8.8125 C3.12870887 7.74257307 2.01287885 6.13114488 0 3 C0 2.01 0 1.02 0 0 Z " fill="#B9B7BC" transform="translate(461,392)"/>
<path d="M0 0 C2.31 0 4.62 0 7 0 C9 2 9 2 9.265625 3.875 C9.26046875 4.57625 9.2553125 5.2775 9.25 6 C9.25515625 6.70125 9.2603125 7.4025 9.265625 8.125 C9 10 9 10 7 12 C5.68 12 4.36 12 3 12 C3 13.32 3 14.64 3 16 C2.01 16 1.02 16 0 16 C0 10.72 0 5.44 0 0 Z " fill="#0D0D0D" transform="translate(269,390)"/>
<path d="M0 0 C-0.33 1.32 -0.66 2.64 -1 4 C-0.01 4 0.98 4 2 4 C2 4.99 2 5.98 2 7 C1.01 7 0.02 7 -1 7 C-1 7.99 -1 8.98 -1 10 C-1.99 10 -2.98 10 -4 10 C-4 8.35 -4 6.7 -4 5 C-4.71285156 5.30035156 -5.42570312 5.60070312 -6.16015625 5.91015625 C-11.95859222 8.21236165 -15.90331751 9.625782 -22 8 C-22.33 7.01 -22.66 6.02 -23 5 C-22.39414062 4.97421875 -21.78828125 4.9484375 -21.1640625 4.921875 C-15.25361749 4.52178334 -10.52813322 3.27512911 -5.12890625 0.83984375 C-3 0 -3 0 0 0 Z " fill="#C8C4CA" transform="translate(466,175)"/>
<path d="M0 0 C0.99 0 1.98 0 3 0 C3 4.29 3 8.58 3 13 C3.99 13 4.98 13 6 13 C6 8.71 6 4.42 6 0 C6.99 0 7.98 0 9 0 C9.05384521 2.29141286 9.09272087 4.58318188 9.125 6.875 C9.14820313 8.15117187 9.17140625 9.42734375 9.1953125 10.7421875 C9 14 9 14 7 16 C4.5 16.25 4.5 16.25 2 16 C0 14 0 14 -0.1953125 10.7421875 C-0.17210937 9.46601563 -0.14890625 8.18984375 -0.125 6.875 C-0.10695313 5.59367187 -0.08890625 4.31234375 -0.0703125 2.9921875 C-0.04710937 2.00476563 -0.02390625 1.01734375 0 0 Z " fill="#0B0B0B" transform="translate(291,390)"/>
<path d="M0 0 C0.556875 0.28875 1.11375 0.5775 1.6875 0.875 C4.08494645 2.0413253 6.51596939 3.0339881 9 4 C9 4.66 9 5.32 9 6 C9.55171875 5.83628906 10.1034375 5.67257813 10.671875 5.50390625 C13.26614007 4.94239586 15.59835411 4.90260992 18.25 4.9375 C19.14203125 4.94652344 20.0340625 4.95554687 20.953125 4.96484375 C21.62859375 4.97644531 22.3040625 4.98804687 23 5 C22.34 6.32 21.68 7.64 21 9 C19.68 9 18.36 9 17 9 C17 9.99 17 10.98 17 12 C10.84765625 11.4140625 10.84765625 11.4140625 9 11 C8.67 10.34 8.34 9.68 8 9 C8.33 8.34 8.66 7.68 9 7 C8.2575 6.731875 7.515 6.46375 6.75 6.1875 C4.10938051 5.04723249 2.14447156 3.90619694 0 2 C0 1.34 0 0.68 0 0 Z " fill="#CBCACE" transform="translate(420,66)"/>
<path d="M0 0 C1.258125 -0.020625 2.51625 -0.04125 3.8125 -0.0625 C4.52019531 -0.07410156 5.22789062 -0.08570313 5.95703125 -0.09765625 C8 0 8 0 11 1 C11 1.66 11 2.32 11 3 C14.3 3.33 17.6 3.66 21 4 C21.33 4.99 21.66 5.98 22 7 C16.555 6.505 16.555 6.505 11 6 C11 5.34 11 4.68 11 4 C8.36 4 5.72 4 3 4 C3.33 5.98 3.66 7.96 4 10 C3.01 10.495 3.01 10.495 2 11 C1.01 10.67 0.02 10.34 -1 10 C-0.67 6.7 -0.34 3.4 0 0 Z " fill="#BEBCC1" transform="translate(125,294)"/>
<path d="M0 0 C1.4540625 0.0309375 1.4540625 0.0309375 2.9375 0.0625 C3.2675 1.7125 3.5975 3.3625 3.9375 5.0625 C2.9475 5.0625 1.9575 5.0625 0.9375 5.0625 C0.9375 4.4025 0.9375 3.7425 0.9375 3.0625 C0.2775 3.0625 -0.3825 3.0625 -1.0625 3.0625 C-1.0625 6.3625 -1.0625 9.6625 -1.0625 13.0625 C-0.4025 13.0625 0.2575 13.0625 0.9375 13.0625 C0.9375 12.0725 0.9375 11.0825 0.9375 10.0625 C1.9275 10.0625 2.9175 10.0625 3.9375 10.0625 C3.0625 14.9375 3.0625 14.9375 1.9375 16.0625 C-0.5625 16.1875 -0.5625 16.1875 -3.0625 16.0625 C-4.0625 15.0625 -4.0625 15.0625 -4.1953125 11.9375 C-4.19273437 10.65875 -4.19015625 9.38 -4.1875 8.0625 C-4.19007813 6.78375 -4.19265625 5.505 -4.1953125 4.1875 C-4.02083121 0.08205778 -4.02083121 0.08205778 0 0 Z " fill="#131313" transform="translate(201.0625,389.9375)"/>
<path d="M0 0 C1.4540625 0.0309375 1.4540625 0.0309375 2.9375 0.0625 C3.2675 1.7125 3.5975 3.3625 3.9375 5.0625 C2.9475 5.0625 1.9575 5.0625 0.9375 5.0625 C0.9375 4.4025 0.9375 3.7425 0.9375 3.0625 C0.2775 3.0625 -0.3825 3.0625 -1.0625 3.0625 C-1.0625 6.3625 -1.0625 9.6625 -1.0625 13.0625 C-0.4025 13.0625 0.2575 13.0625 0.9375 13.0625 C0.9375 12.0725 0.9375 11.0825 0.9375 10.0625 C1.9275 10.0625 2.9175 10.0625 3.9375 10.0625 C3.0625 14.9375 3.0625 14.9375 1.9375 16.0625 C-0.5625 16.1875 -0.5625 16.1875 -3.0625 16.0625 C-4.0625 15.0625 -4.0625 15.0625 -4.1953125 11.9375 C-4.19273437 10.65875 -4.19015625 9.38 -4.1875 8.0625 C-4.19007813 6.78375 -4.19265625 5.505 -4.1953125 4.1875 C-4.02083121 0.08205778 -4.02083121 0.08205778 0 0 Z " fill="#131313" transform="translate(161.0625,389.9375)"/>
<path d="M0 0 C4.54805635 -0.17835515 7.8794254 0.00214565 12 2 C11.67 3.32 11.34 4.64 11 6 C10.01 6 9.02 6 8 6 C7.67 6.99 7.34 7.98 7 9 C4 9 4 9 2.3125 7.5 C1.879375 7.005 1.44625 6.51 1 6 C1 6.66 1 7.32 1 8 C-0.98 8 -2.96 8 -5 8 C-4.67 7.01 -4.34 6.02 -4 5 C-0.535 4.505 -0.535 4.505 3 4 C3 3.34 3 2.68 3 2 C2.01 1.67 1.02 1.34 0 1 C0 0.67 0 0.34 0 0 Z " fill="#C6C6CA" transform="translate(381,147)"/>
<path d="M0 0 C2.31 0 4.62 0 7 0 C7 0.99 7 1.98 7 3 C5.68 3 4.36 3 3 3 C3 3.99 3 4.98 3 6 C4.32 6 5.64 6 7 6 C7 6.99 7 7.98 7 9 C5.68 9 4.36 9 3 9 C3 10.32 3 11.64 3 13 C4.32 13 5.64 13 7 13 C7 13.99 7 14.98 7 16 C4.69 16 2.38 16 0 16 C0 10.72 0 5.44 0 0 Z " fill="#121212" transform="translate(136,390)"/>
<path d="M0 0 C2.31 0 4.62 0 7 0 C7 0.99 7 1.98 7 3 C5.68 3 4.36 3 3 3 C3 3.99 3 4.98 3 6 C3.99 6 4.98 6 6 6 C6 6.99 6 7.98 6 9 C5.01 9 4.02 9 3 9 C3 10.32 3 11.64 3 13 C4.32 13 5.64 13 7 13 C7 13.99 7 14.98 7 16 C4.69 16 2.38 16 0 16 C0 10.72 0 5.44 0 0 Z " fill="#0E0E0E" transform="translate(335,390)"/>
<path d="M0 0 C1.32 0 2.64 0 4 0 C4 2.97 4 5.94 4 9 C-0.95 10.485 -0.95 10.485 -6 12 C-7.19287411 8.12315913 -8 5.08378077 -8 1 C-7.01 1.33 -6.02 1.66 -5 2 C-5.33 2.33 -5.66 2.66 -6 3 C-3.69 3.66 -1.38 4.32 1 5 C0.67 3.35 0.34 1.7 0 0 Z " fill="#BBB9BF" transform="translate(145,189)"/>
<path d="M0 0 C-1.32 2.64 -2.64 5.28 -4 8 C-4.99 8 -5.98 8 -7 8 C-7.66 8.66 -8.32 9.32 -9 10 C-12.125 10.125 -12.125 10.125 -15 10 C-15 8.68 -15 7.36 -15 6 C-13.02 6 -11.04 6 -9 6 C-8.67 4.02 -8.34 2.04 -8 0 C-4.71023192 -1.09658936 -3.28696233 -0.79953138 0 0 Z " fill="#BDBDC2" transform="translate(268,175)"/>
<path d="M0 0 C-1.01454452 2.5363613 -1.6853556 3.79351461 -4 5.3125 C-4.66 5.539375 -5.32 5.76625 -6 6 C-6.66 5.67 -7.32 5.34 -8 5 C-8.33 6.32 -8.66 7.64 -9 9 C-11.375 9.625 -11.375 9.625 -14 10 C-14.66 9.34 -15.32 8.68 -16 8 C-16 7.01 -16 6.02 -16 5 C-4.86363636 0 -4.86363636 0 0 0 Z " fill="#BFBDC2" transform="translate(500,370)"/>
<path d="M0 0 C1.92578125 0.05078125 1.92578125 0.05078125 4.3125 0.3125 C5.48232422 0.43044922 5.48232422 0.43044922 6.67578125 0.55078125 C9.08207271 1.01586279 10.87133832 1.80658556 13 3 C13 3.66 13 4.32 13 5 C6.73 5 0.46 5 -6 5 C-4.35 3.68 -2.7 2.36 -1 1 C-0.67 0.67 -0.34 0.34 0 0 Z " fill="#C8C8CC" transform="translate(212,154)"/>
<path d="M0 0 C0.66 0 1.32 0 2 0 C0.125 5.75 0.125 5.75 -1 8 C-0.34 8.66 0.32 9.32 1 10 C0.67 10.99 0.34 11.98 0 13 C-0.66 13 -1.32 13 -2 13 C-2.66 12.01 -3.32 11.02 -4 10 C-5.96752828 8.93753473 -7.96587579 7.92862192 -10 7 C-9.67 6.01 -9.34 5.02 -9 4 C-7.88625 3.896875 -6.7725 3.79375 -5.625 3.6875 C-4.42875 3.460625 -3.2325 3.23375 -2 3 C-1.34 2.01 -0.68 1.02 0 0 Z " fill="#C5C6CA" transform="translate(195,99)"/>
<path d="M0 0 C2.64 0 5.28 0 8 0 C8 0.99 8 1.98 8 3 C7.34 3 6.68 3 6 3 C6 7.29 6 11.58 6 16 C5.01 16 4.02 16 3 16 C3 11.71 3 7.42 3 3 C2.01 3 1.02 3 0 3 C0 2.01 0 1.02 0 0 Z " fill="#0D0D0D" transform="translate(313,390)"/>
<path d="M0 0 C-1.49730222 4.042716 -4.27737606 6.90759963 -8 9 C-11.875 9.3125 -11.875 9.3125 -15 9 C-13.64529547 4.9358864 -11.62588966 4.16158807 -8 2 C-4.99167651 0.60077977 -3.33265035 0 0 0 Z " fill="#BDBAC0" transform="translate(476,381)"/>
<path d="M0 0 C0 4.62 0 9.24 0 14 C-2.31 14 -4.62 14 -7 14 C-6.360625 13.71125 -5.72125 13.4225 -5.0625 13.125 C-2.84793921 12.17176549 -2.84793921 12.17176549 -2 10 C-3.32 10 -4.64 10 -6 10 C-5.34 8.35 -4.68 6.7 -4 5 C-4.66 4.67 -5.32 4.34 -6 4 C-2.25 0 -2.25 0 0 0 Z " fill="#C2C1C6" transform="translate(149,172)"/>
<path d="M0 0 C0.66 0.33 1.32 0.66 2 1 C2.625 4.0625 2.625 4.0625 3 7 C2.34 7 1.68 7 1 7 C0.71125 7.763125 0.4225 8.52625 0.125 9.3125 C-1 12 -1 12 -3 15 C-5.625 15.6875 -5.625 15.6875 -8 16 C-8.33 15.34 -8.66 14.68 -9 14 C-8.01 14 -7.02 14 -6 14 C-5.88785156 13.44828125 -5.77570313 12.8965625 -5.66015625 12.328125 C-4.88639227 9.59934789 -3.73182306 7.27227057 -2.4375 4.75 C-1.75494141 3.41195312 -1.75494141 3.41195312 -1.05859375 2.046875 C-0.70925781 1.37140625 -0.35992187 0.6959375 0 0 Z " fill="#C3C2C8" transform="translate(272,136)"/>
<path d="M0 0 C0.99 0.33 1.98 0.66 3 1 C3.33 2.98 3.66 4.96 4 7 C1.56421213 7.53030068 -0.87305975 8.04952312 -3.3125 8.5625 C-4.00279297 8.71396484 -4.69308594 8.86542969 -5.40429688 9.02148438 C-8.75544066 9.71761569 -10.69534072 10.10155309 -14 9 C-12.24135754 6.8206856 -11.30604 6.06313581 -8.51953125 5.48828125 C-7.17955078 5.40126953 -7.17955078 5.40126953 -5.8125 5.3125 C-4.46091797 5.21388672 -4.46091797 5.21388672 -3.08203125 5.11328125 C-2.05142578 5.05720703 -2.05142578 5.05720703 -1 5 C-0.67 3.35 -0.34 1.7 0 0 Z " fill="#C2C2C6" transform="translate(190,130)"/>
<path d="M0 0 C0.66 0.33 1.32 0.66 2 1 C1 4 1 4 -1 5 C-0.67 6.98 -0.34 8.96 0 11 C-1.9375 10.1875 -1.9375 10.1875 -4 9 C-4.33 8.01 -4.66 7.02 -5 6 C-6.98 7.32 -8.96 8.64 -11 10 C-10.61256127 7.54447615 -10.30405354 6.28924068 -8.4765625 4.55078125 C-7.86554688 4.14214844 -7.25453125 3.73351562 -6.625 3.3125 C-6.01914063 2.89613281 -5.41328125 2.47976563 -4.7890625 2.05078125 C-3 1 -3 1 0 0 Z " fill="#BAB9BE" transform="translate(251,272)"/>
<path d="M0 0 C0.99 0 1.98 0 3 0 C3 0.66 3 1.32 3 2 C2.34 2 1.68 2 1 2 C1 2.66 1 3.32 1 4 C-0.65 4 -2.3 4 -4 4 C-4 4.66 -4 5.32 -4 6 C-7.3 6.33 -10.6 6.66 -14 7 C-13 3 -13 3 -10.9375 1.6875 C-6.9786679 0.76096483 -4.0013155 1.32181093 0 2 C0 1.34 0 0.68 0 0 Z " fill="#BDBDC2" transform="translate(145,162)"/>
<path d="M0 0 C1.32 0.33 2.64 0.66 4 1 C5.125 5.75 5.125 5.75 4 8 C3.03578125 7.97679687 2.0715625 7.95359375 1.078125 7.9296875 C-0.18515625 7.91164062 -1.4484375 7.89359375 -2.75 7.875 C-4.62945312 7.84019531 -4.62945312 7.84019531 -6.546875 7.8046875 C-9.72820492 7.98462698 -11.36521896 8.31001418 -14 10 C-12.125 6.125 -12.125 6.125 -11 5 C-8.81360547 4.92741054 -6.62499611 4.91626217 -4.4375 4.9375 C-2.64119141 4.95103516 -2.64119141 4.95103516 -0.80859375 4.96484375 C0.11824219 4.97644531 1.04507812 4.98804688 2 5 C2 4.01 2 3.02 2 2 C1.34 2 0.68 2 0 2 C0 1.34 0 0.68 0 0 Z " fill="#C6C6CB" transform="translate(364,156)"/>
<path d="M0 0 C-0.3125 1.9375 -0.3125 1.9375 -1 4 C-1.99 4.33 -2.98 4.66 -4 5 C-4.495 5.680625 -4.99 6.36125 -5.5 7.0625 C-5.995 7.701875 -6.49 8.34125 -7 9 C-7.99 9 -8.98 9 -10 9 C-9.40377804 2.68004723 -9.40377804 2.68004723 -7.8125 0 C-5.05274248 -1.52262484 -2.96304212 -0.72429919 0 0 Z " fill="#BFBFC4" transform="translate(266,162)"/>
<path d="M0 0 C0.99 0.33 1.98 0.66 3 1 C3.33 1.99 3.66 2.98 4 4 C4.99 4.33 5.98 4.66 7 5 C7 5.66 7 6.32 7 7 C7.94875 7.2475 8.8975 7.495 9.875 7.75 C13 9 13 9 14.375 11.125 C14.58125 11.74375 14.7875 12.3625 15 13 C10.77096401 11.69101267 6.83550432 10.22994437 3 8 C2.67 7.01 2.34 6.02 2 5 C-0.00016466 3.79117904 -0.00016466 3.79117904 -2 3 C-2 2.34 -2 1.68 -2 1 C-1.34 0.67 -0.68 0.34 0 0 Z " fill="#C9C7CC" transform="translate(421,167)"/>
<path d="M0 0 C1.45792884 -0.05399736 2.91642712 -0.09279177 4.375 -0.125 C5.18710937 -0.14820313 5.99921875 -0.17140625 6.8359375 -0.1953125 C9 0 9 0 11 2 C10.3125 3.9375 10.3125 3.9375 9 6 C6.04588797 7.08835706 4.62168913 7.25203613 1.6875 6.0625 C1.130625 5.711875 0.57375 5.36125 0 5 C0.33 4.34 0.66 3.68 1 3 C1.99 3 2.98 3 4 3 C4 2.34 4 1.68 4 1 C2.68 0.67 1.36 0.34 0 0 Z " fill="#C0BEC3" transform="translate(466,400)"/>
<path d="M0 0 C3.3 0.33 6.6 0.66 10 1 C9.67 3.31 9.34 5.62 9 8 C4.545 6.02 4.545 6.02 0 4 C0 2.68 0 1.36 0 0 Z " fill="#BAB9BD" transform="translate(106,289)"/>
<path d="M0 0 C2.375 0.1875 2.375 0.1875 5 1 C6.0625 3.25 6.0625 3.25 7 6 C7.70125 6.86625 8.4025 7.7325 9.125 8.625 C11 11 11 11 11 14 C9.1875 13.875 9.1875 13.875 7 13 C4 7.96428571 4 7.96428571 4 5 C3.01 4.67 2.02 4.34 1 4 C0.3125 1.9375 0.3125 1.9375 0 0 Z " fill="#C5C1C7" transform="translate(433,334)"/>
<path d="M0 0 C0.66 0.33 1.32 0.66 2 1 C1.67 5.95 1.34 10.9 1 16 C0.01 16 -0.98 16 -2 16 C-2.05384521 13.70858714 -2.09272087 11.41681812 -2.125 9.125 C-2.14820313 7.84882813 -2.17140625 6.57265625 -2.1953125 5.2578125 C-2 2 -2 2 0 0 Z " fill="#010101" transform="translate(243,390)"/>
<path d="M0 0 C1.65 0 3.3 0 5 0 C1.66437233 4.51290803 -0.33289301 6.68206814 -6 8 C-6 4 -6 4 -5 2 C-3.35 2 -1.7 2 0 2 C0 1.34 0 0.68 0 0 Z " fill="#C0C0C4" transform="translate(179,144)"/>
<path d="M0 0 C1.36125 0.12375 1.36125 0.12375 2.75 0.25 C3.08 1.9 3.41 3.55 3.75 5.25 C2.29364629 5.47174933 0.83477044 5.67698698 -0.625 5.875 C-1.43710937 5.99101562 -2.24921875 6.10703125 -3.0859375 6.2265625 C-3.80007813 6.23429687 -4.51421875 6.24203125 -5.25 6.25 C-5.91 5.59 -6.57 4.93 -7.25 4.25 C-4.83923194 1.28290085 -3.90322061 0.30024774 0 0 Z " fill="#BAB6BB" transform="translate(486.25,388.75)"/>
<path d="M0 0 C1.66611905 -0.042721 3.33382885 -0.04063832 5 0 C6 1 6 1 6.0625 4.5625 C6.041875 5.696875 6.02125 6.83125 6 8 C4.35 7.67 2.7 7.34 1 7 C0.67 4.69 0.34 2.38 0 0 Z " fill="#C5C5C9" transform="translate(88,211)"/>
<path d="M0 0 C1.65 0.33 3.3 0.66 5 1 C5 1.66 5 2.32 5 3 C4.34 3 3.68 3 3 3 C2.896875 3.78375 2.79375 4.5675 2.6875 5.375 C2 8 2 8 -1 10 C-1.68707555 7.50935112 -2 5.62113708 -2 3 C-1.34 2.01 -0.68 1.02 0 0 Z " fill="#BEBEC1" transform="translate(102,396)"/>
<path d="M0 0 C-0.33 1.32 -0.66 2.64 -1 4 C-3.97 4 -6.94 4 -10 4 C-10 3.01 -10 2.02 -10 1 C-6.1496895 -1.56687367 -4.41430237 -0.83288724 0 0 Z " fill="#C5C1C6" transform="translate(41,344)"/>
<path d="M0 0 C0.825 0.185625 1.65 0.37125 2.5 0.5625 C6.61926719 1.0774084 9.90823355 0.63492928 14 0 C14.66 0.99 15.32 1.98 16 3 C14.27277272 3.22384382 12.54303993 3.42839969 10.8125 3.625 C9.36810547 3.79902344 9.36810547 3.79902344 7.89453125 3.9765625 C4.75924677 4.00194942 2.80513465 3.34359283 0 2 C0 1.34 0 0.68 0 0 Z " fill="#C0BFC4" transform="translate(206,289)"/>
<path d="M0 0 C2.97 0.33 5.94 0.66 9 1 C9 1.33 9 1.66 9 2 C7.35 2.33 5.7 2.66 4 3 C4.804375 3.268125 5.60875 3.53625 6.4375 3.8125 C7.283125 4.204375 8.12875 4.59625 9 5 C9.33 5.99 9.66 6.98 10 8 C4.5388601 7.11917098 4.5388601 7.11917098 2 6 C0.5 2.875 0.5 2.875 0 0 Z " fill="#C1C0C5" transform="translate(224,295)"/>
<path d="M0 0 C0.99 0.33 1.98 0.66 3 1 C2.67 1.33 2.34 1.66 2 2 C4.31 2.66 6.62 3.32 9 4 C9 4.33 9 4.66 9 5 C7.35 5 5.7 5 4 5 C4.99 6.32 5.98 7.64 7 9 C5.35 9.66 3.7 10.32 2 11 C0.80712589 7.12315913 0 4.08378077 0 0 Z " fill="#C1C0C5" transform="translate(137,190)"/>
<path d="M0 0 C0.66 0.33 1.32 0.66 2 1 C0.59908008 4.38555647 -0.79669811 6.18190974 -4 8 C-7.75 8.6875 -7.75 8.6875 -11 9 C-10.195625 8.38125 -9.39125 7.7625 -8.5625 7.125 C-5.96125481 5.25835959 -5.96125481 5.25835959 -5 3 C-2.5625 1.3125 -2.5625 1.3125 0 0 Z " fill="#C2C2C7" transform="translate(184,150)"/>
<path d="M0 0 C1.62418745 -0.08090971 3.24951745 -0.13914995 4.875 -0.1875 C5.77992188 -0.22230469 6.68484375 -0.25710938 7.6171875 -0.29296875 C8.79667969 -0.14794922 8.79667969 -0.14794922 10 0 C10.66 0.99 11.32 1.98 12 3 C7.66726186 3.92844389 4.33273814 3.92844389 0 3 C0 2.01 0 1.02 0 0 Z " fill="#C0BDC2" transform="translate(447,396)"/>
<path d="M0 0 C-0.33 1.65 -0.66 3.3 -1 5 C-3.64 5 -6.28 5 -9 5 C-8.25 3.0625 -8.25 3.0625 -7 1 C-4.50529228 0.03430669 -2.70254461 0 0 0 Z " fill="#BBB9BE" transform="translate(500,388)"/>
<path d="M0 0 C-0.66 1.32 -1.32 2.64 -2 4 C-3.32 4 -4.64 4 -6 4 C-6 4.66 -6 5.32 -6 6 C-8.97 5.505 -8.97 5.505 -12 5 C-7.81374099 0.67419902 -6.05150555 -0.13155447 0 0 Z " fill="#C5C3C8" transform="translate(443,71)"/>
<path d="M0 0 C0.66 0.66 1.32 1.32 2 2 C-3.14285714 7.57142857 -3.14285714 7.57142857 -7 8 C-7.33 7.01 -7.66 6.02 -8 5 C-4.04 2.525 -4.04 2.525 0 0 Z " fill="#C3C4C8" transform="translate(216,36)"/>
<path d="M0 0 C0.99 0 1.98 0 3 0 C3 3.3 3 6.6 3 10 C2.01 10 1.02 10 0 10 C0 6.7 0 3.4 0 0 Z " fill="#ADADB0" transform="translate(221,393)"/>
<path d="M0 0 C0 0.66 0 1.32 0 2 C-2.31 2 -4.62 2 -7 2 C-7 2.66 -7 3.32 -7 4 C-9.97 3.505 -9.97 3.505 -13 3 C-13 2.34 -13 1.68 -13 1 C-8.60563789 0.14256349 -4.47427924 -0.08948558 0 0 Z " fill="#BBB8BD" transform="translate(149,329)"/>
<path d="M0 0 C2.31 0.33 4.62 0.66 7 1 C7 1.66 7 2.32 7 3 C5.68 3 4.36 3 3 3 C3 3.66 3 4.32 3 5 C1.35 4.67 -0.3 4.34 -2 4 C-1.34 2.68 -0.68 1.36 0 0 Z " fill="#C3C3C8" transform="translate(364,142)"/>
<path d="M0 0 C-3.08888522 2.05925681 -3.70935927 2.2390374 -7.1875 2.125 C-9.0746875 2.063125 -9.0746875 2.063125 -11 2 C-11 1.34 -11 0.68 -11 0 C-6.66370819 -2.2956839 -4.46535773 -1.86921951 0 0 Z " fill="#C5C2C6" transform="translate(426,332)"/>
<path d="M0 0 C2.97 0 5.94 0 9 0 C9 0.99 9 1.98 9 3 C6.08517222 3.80967438 4.53886783 4.21845993 1.6875 3.0625 C1.130625 2.711875 0.57375 2.36125 0 2 C0 1.34 0 0.68 0 0 Z " fill="#C4C3C7" transform="translate(330,363)"/>
<path d="M0 0 C1.2065625 0.0309375 1.2065625 0.0309375 2.4375 0.0625 C2.4375 1.3825 2.4375 2.7025 2.4375 4.0625 C0.7875 4.3925 -0.8625 4.7225 -2.5625 5.0625 C-3.125 3.125 -3.125 3.125 -3.5625 1.0625 C-2.5625 0.0625 -2.5625 0.0625 0 0 Z " fill="#BEBDC2" transform="translate(389.5625,147.9375)"/>
<path d="M0 0 C2.0625 0.75 2.0625 0.75 4 2 C4.33 2.99 4.66 3.98 5 5 C2.36 4.67 -0.28 4.34 -3 4 C-2.67 3.01 -2.34 2.02 -2 1 C-1.34 0.67 -0.68 0.34 0 0 Z " fill="#BCBBC0" transform="translate(484,403)"/>
<path d="M0 0 C1.32 0 2.64 0 4 0 C4 1.32 4 2.64 4 4 C2.02 4.33 0.04 4.66 -2 5 C-1.125 1.125 -1.125 1.125 0 0 Z " fill="#BDBCC1" transform="translate(496,403)"/>
<path d="M0 0 C2.2870771 0.26970249 4.53591335 0.60689229 6.796875 1.04296875 C3.76162014 3.06647199 2.60261298 3.36420893 -0.890625 3.66796875 C-1.69886719 3.74273437 -2.50710937 3.8175 -3.33984375 3.89453125 C-3.95472656 3.94351563 -4.56960937 3.9925 -5.203125 4.04296875 C-3.94603213 1.27736445 -3.13780685 0.06119836 0 0 Z " fill="#BABABF" transform="translate(181.203125,135.95703125)"/>
<path d="M0 0 C0.66 0.33 1.32 0.66 2 1 C0.86695008 4.39914975 -0.12518475 5.05254451 -3 7 C-3 6.01 -3 5.02 -3 4 C-3.99 3.67 -4.98 3.34 -6 3 C-4.03533587 1.93224776 -2.03144641 0.93446535 0 0 Z " fill="#C2C1C6" transform="translate(251,272)"/>
<path d="M0 0 C-0.33 0.99 -0.66 1.98 -1 3 C-5.455 3.495 -5.455 3.495 -10 4 C-10 3.34 -10 2.68 -10 2 C-6.38026598 0.68373308 -3.90432869 0 0 0 Z " fill="#C0C0C4" transform="translate(379,145)"/>
<path d="M0 0 C0.99 0.99 1.98 1.98 3 3 C2.67 3.99 2.34 4.98 2 6 C0.35 5.67 -1.3 5.34 -3 5 C-2.625 3.0625 -2.625 3.0625 -2 1 C-1.34 0.67 -0.68 0.34 0 0 Z " fill="#C2C2C6" transform="translate(290,130)"/>
<path d="M0 0 C0.66 0 1.32 0 2 0 C1.67 2.31 1.34 4.62 1 7 C-0.98 6.01 -2.96 5.02 -5 4 C-4.34 3.34 -3.68 2.68 -3 2 C-2.01 2 -1.02 2 0 2 C0 1.34 0 0.68 0 0 Z " fill="#C4C3C7" transform="translate(114,290)"/>
<path d="M0 0 C3.3 0 6.6 0 10 0 C10 0.66 10 1.32 10 2 C6.33694766 2.74926071 3.57644848 3.2380014 0 2 C0 1.34 0 0.68 0 0 Z " fill="#C3C3C7" transform="translate(127,199)"/>
<path d="M0 0 C0.598125 0.350625 1.19625 0.70125 1.8125 1.0625 C1.8125 2.0525 1.8125 3.0425 1.8125 4.0625 C-0.4975 3.4025 -2.8075 2.7425 -5.1875 2.0625 C-5.1875 1.4025 -5.1875 0.7425 -5.1875 0.0625 C-2.1875 -0.9375 -2.1875 -0.9375 0 0 Z " fill="#C3C2C6" transform="translate(59.1875,363.9375)"/>
<path d="M0 0 C2.97 0 5.94 0 9 0 C9 0.66 9 1.32 9 2 C5.62182575 2.84454356 3.32534757 3.10844919 0 2 C0 1.34 0 0.68 0 0 Z " fill="#C6C6CA" transform="translate(294,268)"/>
<path d="M0 0 C-0.66 1.98 -1.32 3.96 -2 6 C-2.99 6 -3.98 6 -5 6 C-4.625 3.5625 -4.625 3.5625 -4 1 C-2 0 -2 0 0 0 Z " fill="#C2C2C6" transform="translate(194,273)"/>
<path d="M0 0 C2.475 0.495 2.475 0.495 5 1 C5 2.32 5 3.64 5 5 C3.68 4.67 2.36 4.34 1 4 C0.67 2.68 0.34 1.36 0 0 Z " fill="#C4C3C8" transform="translate(361,251)"/>
<path d="M0 0 C0.99 0 1.98 0 3 0 C3 1.98 3 3.96 3 6 C2.01 6 1.02 6 0 6 C0 4.02 0 2.04 0 0 Z " fill="#ABAAAD" transform="translate(272,393)"/>
<path d="M0 0 C0.66 0 1.32 0 2 0 C2 0.66 2 1.32 2 2 C2.66 2 3.32 2 4 2 C3.67 3.32 3.34 4.64 3 6 C2.01 6 1.02 6 0 6 C0 4.02 0 2.04 0 0 Z " fill="#C6C6CB" transform="translate(354,267)"/>
<path d="M0 0 C0.33 0.66 0.66 1.32 1 2 C1.66 2 2.32 2 3 2 C3 2.99 3 3.98 3 5 C2.401875 4.814375 1.80375 4.62875 1.1875 4.4375 C-1.16408762 3.77906313 -1.16408762 3.77906313 -4 5 C-4 4.34 -4 3.68 -4 3 C-2 1.375 -2 1.375 0 0 Z " fill="#C8C7CB" transform="translate(74,197)"/>
<path d="M0 0 C-0.33 1.32 -0.66 2.64 -1 4 C-2.65 4.33 -4.3 4.66 -6 5 C-6 4.34 -6 3.68 -6 3 C-2.53846154 0 -2.53846154 0 0 0 Z " fill="#C8C8CA" transform="translate(492,375)"/>
<path d="M0 0 C0.6875 1.8125 0.6875 1.8125 1 4 C-0.3125 5.75 -0.3125 5.75 -2 7 C-2.66 7 -3.32 7 -4 7 C-4 6.34 -4 5.68 -4 5 C-3.34 5 -2.68 5 -2 5 C-2 3.68 -2 2.36 -2 1 C-1.34 0.67 -0.68 0.34 0 0 Z " fill="#C8C6CB" transform="translate(60,336)"/>
</svg>
